#!OML:ASF F:\VICON\USERDATA\INSTALL\rory3\rory3.ASF
:FULLY-SPECIFIED
:DEGREES
2573
root 3.96674 17.6261 3.85562 8.26577 -44.0659 10.2978
lowerback 15.2405 -0.533565 0.284023
upperback 6.58393 -0.690548 6.40166
thorax -1.46942 -0.519512 6.73997
lowerneck -6.36259 -11.1615 -11.0925
upperneck 28.4601 -16.8414 8.13313
head 12.0596 -7.94138 2.63296
rclavicle -1.59028e-014 4.29375e-014
rhumerus 15.5318 -9.56166 -83.3005
rradius 40.8634
rwrist -44.674
rhand -41.3733 -28.5698
rfingers 7.12502
rthumb -14.2914 -58.058
lclavicle -1.59028e-014 4.29375e-014
lhumerus 0.162904 -46.8045 97.1141
lradius 60.775
lwrist 16.4542
lhand -10.7236 52.5413
lfingers 7.12502
lthumb 15.2867 -1358.04
rfemur -45.3978 -5.55488 4.27616
rtibia 40.1649
rfoot -16.0921 -18.2509
rtoes 17.2653
lfemur -23.5252 0.494764 -30.7105
ltibia 25.4916
lfoot -12.5323 -8.99046
ltoes -2.87781
2574
root 3.99126 17.6319 3.82577 8.10765 -44.2471 10.3092
lowerback 15.1649 -0.456306 0.283821
upperback 6.63255 -0.596234 6.50602
thorax -1.38642 -0.477853 6.83567
lowerneck -6.42885 -11.2881 -11.0156
upperneck 28.3433 -16.9841 8.03225
head 12.0248 -8.00477 2.55718
rclavicle -8.5875e-014 4.77083e-015
rhumerus 14.6745 -8.96784 -83.9086
rradius 41.0255
rwrist -44.9528
rhand -40.688 -28.8876
rfingers 7.12502
rthumb -13.6309 -58.4213
lclavicle -8.5875e-014 4.77083e-015
lhumerus -1.01192 -46.8849 97.3738
lradius 60.4896
lwrist 15.4221
lhand -10.2858 52.1974
lfingers 7.12502
lthumb 15.7084 -1358.42
rfemur -45.0905 -5.65866 4.20482
rtibia 40.8849
rfoot -16.0952 -18.5317
rtoes 17.1697
lfemur -23.3976 0.85989 -30.7752
ltibia 25.2421
lfoot -12.4797 -9.07654
ltoes -3.72138
2575
root 4.01403 17.6367 3.795 8.00938 -44.4337 10.3169
lowerback 15.1324 -0.386169 0.258255
upperback 6.58792 -0.504379 6.65386
thorax -1.42431 -0.434281 6.99694
lowerneck -6.47031 -11.3821 -11.1329
upperneck 28.3328 -17.0905 8.00128
head 12.051 -8.06403 2.54263
rclavicle 9.54166e-015 4.29375e-014
rhumerus 13.6238 -8.25561 -84.5653
rradius 41.2039
rwrist -45.0635
rhand -40.0557 -29.1021
rfingers 7.12502
rthumb -13.0215 -58.6757
lclavicle 9.54166e-015 4.29375e-014
lhumerus -2.42113 -46.5507 97.8294
lradius 60.1106
lwrist 13.4345
lhand -8.4208 51.2681
lfingers 7.12502
lthumb 17.5039 -1359.5
rfemur -44.8645 -6.08184 4.24955
rtibia 41.5894
rfoot -15.9193 -18.4491
rtoes 17.0841
lfemur -23.3336 1.18495 -30.8156
ltibia 25.0064
lfoot -12.3242 -9.15813
ltoes -3.49161
2576
root 4.03485 17.6398 3.76636 7.79083 -44.6921 10.5004
lowerback 15.1135 -0.260282 0.120144
upperback 6.52046 -0.351761 6.77041
thorax -1.50135 -0.359906 7.18058
lowerneck -6.39573 -11.4895 -11.3087
upperneck 28.2649 -17.2268 8.02628
head 12.047 -8.14162 2.55984
rclavicle 6.36111e-015 -7.31528e-014
rhumerus 12.5573 -7.60594 -85.249
rradius 41.2419
rwrist -45.122
rhand -39.9605 -29.219
rfingers 7.12502
rthumb -12.9297 -58.7984
lclavicle 6.36111e-015 -7.31528e-014
lhumerus -4.05313 -46.5072 98.4754
lradius 59.8534
lwrist 12.5011
lhand -9.13747 51.0863
lfingers 7.12502
lthumb 16.8141 -1359.62
rfemur -44.6371 -6.51983 4.12701
rtibia 42.2681
rfoot -15.5644 -18.1614
rtoes 16.7238
lfemur -23.2605 1.4596 -30.9882
ltibia 24.7881
lfoot -12.2249 -9.09671
ltoes -3.57526
2577
root 4.05541 17.6448 3.73897 7.62975 -44.9759 10.5956
lowerback 15.0303 -0.127635 0.0637004
upperback 6.5416 -0.189789 6.90539
thorax -1.45272 -0.284753 7.33282
lowerneck -6.35734 -11.5839 -11.4812
upperneck 28.0447 -17.3234 8.08012
head 11.9876 -8.19859 2.59203
rclavicle -2.8625e-014 1.11319e-014
rhumerus 11.5441 -6.8005 -85.8497
rradius 41.3429
rwrist -45.6527
rhand -40.1939 -29.2121
rfingers 7.12502
rthumb -13.1547 -58.7771
lclavicle -2.8625e-014 1.11319e-014
lhumerus -5.55728 -46.6268 98.9714
lradius 59.682
lwrist 12.5707
lhand -11.5521 51.6017
lfingers 7.12502
lthumb 14.4886 -1358.92
rfemur -44.3773 -6.70853 3.96046
rtibia 42.9103
rfoot -15.2325 -18.0431
rtoes 16.0265
lfemur -23.1935 1.71536 -31.086
ltibia 24.5652
lfoot -12.0578 -8.99427
ltoes -3.59073
2578
root 4.07152 17.6497 3.71156 7.43877 -45.2576 10.6853
lowerback 14.9219 -0.00412225 0.0555927
upperback 6.6079 -0.0389514 7.0063
thorax -1.34283 -0.2161 7.42068
lowerneck -6.26884 -11.6609 -11.6255
upperneck 27.7456 -17.4061 8.18123
head 11.8877 -8.24508 2.64333
rclavicle 6.83819e-014 -8.11041e-014
rhumerus 10.5094 -5.96517 -86.5238
rradius 41.4233
rwrist -46.1011
rhand -40.1394 -29.1612
rfingers 7.12502
rthumb -13.1022 -58.7296
lclavicle 6.83819e-014 -8.11041e-014
lhumerus -7.06707 -46.6235 99.3575
lradius 59.5038
lwrist 12.4617
lhand -13.0272 52.0257
lfingers 7.12502
lthumb 13.067 -1358.4
rfemur -44.0499 -6.8229 3.75523
rtibia 43.5158
rfoot -14.9825 -17.9061
rtoes 16.1886
lfemur -23.0986 2.03501 -31.1825
ltibia 24.3421
lfoot -11.875 -8.90486
ltoes -3.74417
2579
root 4.08549 17.6517 3.67995 7.16203 -45.5599 10.8784
lowerback 14.9302 0.220727 -0.0238796
upperback 6.66039 0.24134 7.07398
thorax -1.32758 -0.0810799 7.49591
lowerneck -6.22628 -11.8508 -11.6184
upperneck 27.4772 -17.6612 8.2382
head 11.8102 -8.35396 2.62457
rclavicle 1.1291e-013 -3.18055e-015
rhumerus 9.48556 -5.48574 -87.278
rradius 41.405
rwrist -46.1182
rhand -39.8144 -29.3306
rfingers 7.12502
rthumb -12.7889 -58.9189
lclavicle 1.1291e-013 -3.18055e-015
lhumerus -8.7064 -46.9215 99.865
lradius 59.393
lwrist 12.6322
lhand -14.2616 52.5312
lfingers 7.12502
lthumb 11.8769 -1357.83
rfemur -43.7133 -6.94955 3.44873
rtibia 44.0802
rfoot -14.7669 -17.7298
rtoes 16.8459
lfemur -22.9941 2.46638 -31.371
ltibia 24.1357
lfoot -11.7999 -8.84834
ltoes -4.30318
2580
root 4.10252 17.6524 3.64598 6.87149 -45.7973 11.1362
lowerback 14.9961 0.48957 0.0586676
upperback 6.67533 0.60565 7.02615
thorax -1.39436 0.104135 7.33615
lowerneck -6.19779 -12.115 -11.4138
upperneck 27.2284 -18.07 8.34811
head 11.7465 -8.50562 2.56989
rclavicle -1.74931e-014 -4.45278e-014
rhumerus 8.43477 -5.34372 -88.1648
rradius 41.409
rwrist -46.1735
rhand -39.9716 -29.8362
rfingers 7.12502
rthumb -12.9404 -59.4149
lclavicle -1.74931e-014 -4.45278e-014
lhumerus -10.1031 -46.621 100.096
lradius 58.8255
lwrist 9.47686
lhand -9.86762 51.1308
lfingers 7.12502
lthumb 16.1111 -1359.52
rfemur -43.3727 -7.08352 3.04901
rtibia 44.5985
rfoot -14.6636 -17.6663
rtoes 17.3364
lfemur -22.9303 2.86491 -31.6069
ltibia 23.9499
lfoot -11.8097 -8.8512
ltoes -4.40547
2581
root 4.11814 17.6531 3.61639 6.55167 -46.0181 11.3927
lowerback 14.8873 0.651242 0.389997
upperback 6.80178 0.842585 6.82245
thorax -1.22774 0.226477 6.87907
lowerneck -6.13967 -12.3097 -11.1551
upperneck 26.9407 -18.417 8.58068
head 11.6621 -8.61661 2.56435
rclavicle -2.54444e-014 -4.77083e-014
rhumerus 7.42657 -4.89614 -89.2309
rradius 41.4628
rwrist -46.6732
rhand -40.3975 -30.0904
rfingers 7.12502
rthumb -13.3509 -59.6427
lclavicle -2.54444e-014 -4.77083e-014
lhumerus -11.5137 -46.9142 100.027
lradius 58.5789
lwrist 8.7117
lhand -10.3057 51.179
lfingers 7.12502
lthumb 15.6893 -1359.44
rfemur -42.9775 -7.27945 2.66553
rtibia 45.0622
rfoot -14.3922 -17.6173
rtoes 17.1859
lfemur -22.8309 3.3007 -31.8557
ltibia 23.787
lfoot -11.9126 -8.86458
ltoes -4.63606
2582
root 4.12934 17.6543 3.58667 6.21996 -46.2636 11.5629
lowerback 14.7662 0.728436 0.781371
upperback 7.03638 0.963532 6.62541
thorax -0.921379 0.287875 6.41703
lowerneck -6.2461 -12.4386 -10.9105
upperneck 26.7426 -18.6333 8.71245
head 11.6196 -8.67398 2.53442
rclavicle -6.99722e-014 -8.26944e-014
rhumerus 6.62522 -4.20473 -90.4422
rradius 41.3029
rwrist -47.0284
rhand -39.9809 -30.0893
rfingers 7.12502
rthumb -12.9494 -59.6675
lclavicle -6.99722e-014 -8.26944e-014
lhumerus -12.9622 -47.4682 99.8964
lradius 58.5837
lwrist 9.93458
lhand -10.4151 51.1939
lfingers 7.12502
lthumb 15.5839 -1359.41
rfemur -42.5062 -7.3976 2.34819
rtibia 45.4613
rfoot -14.0587 -17.5704
rtoes 17.2358
lfemur -22.6655 3.72102 -32.0005
ltibia 23.6523
lfoot -12.0652 -8.80654
ltoes -5.42498
2583
root 4.13967 17.6548 3.55446 6.09353 -46.4939 11.564
lowerback 14.7271 0.827343 1.18738
upperback 7.18996 1.12513 6.56309
thorax -0.746903 0.371867 6.08975
lowerneck -6.39385 -12.5738 -10.791
upperneck 26.5849 -18.8167 8.75631
head 11.6011 -8.73439 2.49309
rclavicle 3.65764e-014 -1.01778e-013
rhumerus 5.821 -3.41006 -91.5166
rradius 41.0368
rwrist -47.2131
rhand -39.5311 -30.0533
rfingers 7.12502
rthumb -12.5157 -59.6584
lclavicle 3.65764e-014 -1.01778e-013
lhumerus -14.2299 -47.1627 99.737
lradius 58.33
lwrist 8.28937
lhand -8.43694 50.8342
lfingers 7.12502
lthumb 17.4884 -1359.93
rfemur -42.1127 -7.49676 2.16952
rtibia 45.7918
rfoot -13.69 -17.5677
rtoes 17.4533
lfemur -22.6083 3.94344 -31.9509
ltibia 23.5244
lfoot -12.1249 -8.75575
ltoes -5.01521
2584
root 4.15013 17.6538 3.52494 5.90191 -46.7082 11.6838
lowerback 14.7887 0.952486 1.35087
upperback 7.24763 1.30536 6.64217
thorax -0.733765 0.46103 6.05335
lowerneck -6.35821 -12.6842 -10.9714
upperneck 26.3652 -18.9466 8.86627
head 11.5577 -8.80111 2.53978
rclavicle -7.15625e-014 0
rhumerus 4.79003 -2.17743 -92.2136
rradius 40.8412
rwrist -47.4289
rhand -39.4325 -30.2266
rfingers 7.12502
rthumb -12.4206 -59.8376
lclavicle -7.15625e-014 0
lhumerus -15.6984 -46.6036 99.9897
lradius 58.0411
lwrist 7.40437
lhand -9.81124 51.1749
lfingers 7.12502
lthumb 16.1654 -1359.48
rfemur -41.7169 -7.72517 1.90752
rtibia 46.06
rfoot -13.3942 -17.5519
rtoes 17.0673
lfemur -22.5601 4.06477 -31.978
ltibia 23.4151
lfoot -12.0904 -8.66845
ltoes -4.18173
2585
root 4.15795 17.6531 3.49368 5.54271 -47.0018 11.9394
lowerback 15.0089 1.11136 1.24213
upperback 7.27432 1.50646 6.80666
thorax -0.847614 0.55413 6.26262
lowerneck -6.29264 -12.7517 -11.2037
upperneck 26.2163 -18.9785 8.82343
head 11.5124 -8.84444 2.55775
rclavicle 3.33958e-014 1.59028e-013
rhumerus 3.66348 -0.603901 -92.711
rradius 40.5623
rwrist -47.682
rhand -39.346 -30.426
rfingers 7.12502
rthumb -12.3373 -60.042
lclavicle 3.33958e-014 1.59028e-013
lhumerus -17.3059 -45.6336 100.469
lradius 57.8011
lwrist 6.80509
lhand -12.1856 51.9055
lfingers 7.12502
lthumb 13.8782 -1358.58
rfemur -41.2728 -7.94827 1.5505
rtibia 46.2635
rfoot -13.1308 -17.5192
rtoes 16.8324
lfemur -22.4509 4.41427 -32.1499
ltibia 23.3252
lfoot -11.9174 -8.59119
ltoes -4.94837
2586
root 4.16173 17.654 3.45523 5.27289 -47.4339 12.1536
lowerback 15.4116 1.49161 0.557607
upperback 7.1615 1.94885 7.39999
thorax -1.26349 0.754074 7.23254
lowerneck -6.10612 -12.9077 -11.807
upperneck 26.1116 -19.0327 8.52883
head 11.4772 -8.95776 2.5429
rclavicle -9.70069e-014 3.49861e-014
rhumerus 2.41498 1.09809 -92.6224
rradius 40.1974
rwrist -47.904
rhand -38.3913 -30.9117
rfingers 7.12502
rthumb -11.4167 -60.5809
lclavicle -9.70069e-014 3.49861e-014
lhumerus -19.0492 -44.3 101.682
lradius 57.4316
lwrist 5.76789
lhand -13.0294 52.1749
lfingers 7.12502
lthumb 13.0649 -1358.25
rfemur -40.9348 -7.93961 1.22503
rtibia 46.3776
rfoot -13.1048 -17.578
rtoes 17.3929
lfemur -22.4463 4.92938 -32.2757
ltibia 23.2459
lfoot -11.7906 -8.56825
ltoes -6.28721
